<?xml version="1.0" encoding="UTF-8"?>
<svg xmlns="http://www.w3.org/2000/svg" xmlns:xlink="http://www.w3.org/1999/xlink" width="150px" height="150px" viewBox="0 0 150 150" version="1.1">
<g id="surface1">
<path style=" stroke:none;fill-rule:nonzero;fill:rgb(0%,0%,0%);fill-opacity:1;" d="M 84.542969 0.613281 C 43.457031 -4.636719 5.882812 24.367188 0.613281 65.457031 C -4.636719 106.542969 24.367188 144.117188 65.457031 149.386719 C 106.542969 154.636719 144.117188 125.632812 149.363281 84.542969 C 154.636719 43.457031 125.640625 5.882812 84.542969 0.613281 Z M 99.976562 47.414062 C 98.582031 47.414062 97.261719 47.976562 96.285156 48.976562 L 68.457031 76.78125 L 66.53125 74.875 L 62.523438 70.847656 C 89.9375 43.503906 94.898438 43.234375 99.96875 47.410156 Z M 69.605469 77.78125 L 97.335938 50.023438 C 98.875 48.414062 101.4375 48.4375 102.980469 50.046875 C 104.492188 51.683594 104.34375 54.25 102.636719 55.660156 L 73.269531 81.441406 Z M 71.65625 82.128906 L 64.773438 83.617188 C 64.625 83.640625 64.433594 83.5625 64.359375 83.394531 C 64.285156 83.246094 64.308594 83.078125 64.433594 82.949219 L 68.460938 78.921875 Z M 54.125 79.25 L 61.476562 71.925781 L 66.96875 77.417969 L 54.589844 80.078125 C 54.371094 80.128906 54.15625 80.035156 54.050781 79.832031 C 53.933594 79.640625 53.980469 79.398438 54.125 79.25 Z M 31.351562 117.113281 C 31.082031 117.089844 30.882812 116.84375 30.90625 116.601562 C 30.929688 116.484375 30.980469 116.382812 31.054688 116.304688 L 31.078125 116.304688 L 36.984375 110.398438 L 44.628906 118.046875 Z M 46.503906 109.25 C 45.921875 109.570312 45.628906 110.230469 45.773438 110.863281 L 47.042969 116.265625 C 47.246094 117.046875 46.289062 117.578125 45.726562 116.996094 L 45.703125 116.996094 L 38.039062 109.328125 L 61.550781 85.835938 L 72.929688 83.375 L 78.371094 88.847656 C 70.53125 95.726562 59.8125 102.589844 46.507812 109.25 Z M 79.496094 87.84375 L 74.246094 82.59375 L 103.613281 56.8125 C 103.878906 56.570312 104.125 56.300781 104.34375 56.03125 C 103.445312 64.429688 91.671875 76.292969 79.496094 87.84375 Z M 102.371094 47.460938 L 102.347656 47.460938 C 92.113281 37.179688 106.570312 21.382812 117.703125 30.660156 L 107.648438 40.75 C 107.351562 41.035156 107.351562 41.53125 107.648438 41.816406 L 115.433594 49.613281 C 111.066406 51.78125 105.816406 50.90625 102.371094 47.460938 Z M 118.457031 47.460938 C 117.945312 47.972656 117.382812 48.4375 116.773438 48.824219 L 109.234375 41.28125 L 118.800781 31.6875 C 122.949219 36.207031 122.78125 43.140625 118.457031 47.460938 Z M 117.84375 37.820312 C 117.53125 38.039062 117.40625 38.421875 117.507812 38.792969 C 117.96875 39.71875 117.84375 40.820312 117.1875 41.601562 C 116.867188 41.996094 116.945312 42.535156 117.332031 42.84375 C 117.484375 42.941406 117.652344 43.015625 117.84375 43.015625 C 118.109375 43.015625 118.363281 42.917969 118.503906 42.722656 C 119.605469 41.40625 119.820312 39.546875 119.066406 38.011719 C 118.773438 37.621094 118.238281 37.523438 117.84375 37.820312 Z M 117.84375 37.820312 "/>
</g>
</svg>
