<?xml version="1.0" encoding="UTF-8"?>
<svg xmlns="http://www.w3.org/2000/svg" xmlns:xlink="http://www.w3.org/1999/xlink" width="150px" height="150px" viewBox="0 0 150 150" version="1.1">
<g id="surface1">
<path style=" stroke:none;fill-rule:nonzero;fill:rgb(0%,0%,0%);fill-opacity:1;" d="M 102.121094 1.492188 L 101.367188 18.4375 C 101.34375 19.386719 102.441406 19.972656 103.199219 19.386719 L 109.8125 14.382812 L 115.429688 18.75 C 116.160156 19.238281 117.140625 18.75 117.1875 17.867188 L 116.554688 0.632812 L 124.878906 0 C 129.203125 -0.296875 132.886719 3.148438 132.886719 7.496094 L 132.886719 142.503906 C 132.886719 146.804688 129.296875 150.21875 125 150 L 24.367188 145.507812 C 20.460938 145.339844 17.3125 142.191406 17.1875 138.257812 L 12.5 14.503906 C 12.257812 10.355469 15.40625 6.789062 19.554688 6.566406 L 102.050781 1.367188 Z M 82.9375 58.128906 C 82.9375 61.058594 102.6875 59.621094 105.371094 57.617188 C 105.371094 37.621094 94.625 27.050781 75 27.050781 C 55.320312 27.050781 44.386719 37.820312 44.386719 53.882812 C 44.386719 81.6875 81.886719 82.175781 81.886719 97.363281 C 81.886719 101.761719 79.882812 104.25 75.320312 104.25 C 69.3125 104.25 66.871094 101.199219 67.191406 90.75 C 67.191406 88.503906 44.386719 87.746094 43.632812 90.75 C 41.949219 115.945312 57.570312 123.242188 75.492188 123.242188 C 92.949219 123.242188 106.570312 113.945312 106.570312 97.121094 C 106.570312 67.3125 68.4375 68.113281 68.4375 53.371094 C 68.4375 47.316406 72.957031 46.507812 75.492188 46.507812 C 78.324219 46.507812 83.304688 46.949219 82.941406 58.179688 Z M 82.9375 58.128906 "/>
</g>
</svg>
